<svg width="128" height="128" viewBox="0 0 128 128" fill="none" xmlns="http://www.w3.org/2000/svg">
<path d="M56.7203 103.522L60.7899 99.3799L54.4676 93.0576L60.7899 86.7353L56.7203 82.5932L46.2559 93.0576L56.7203 103.522ZM70.6729 103.522L81.1374 93.0576L70.6729 82.5932L66.6034 86.7353L72.9257 93.0576L66.6034 99.3799L70.6729 103.522ZM37.5355 119.219V66.8965H89.8578V119.219H37.5355ZM43.3491 113.405H84.0442V72.7101H43.3491V113.405Z" fill="white"/>
<path d="M93.7251 36.9444C93.4457 38.0755 93.1013 39.1895 92.6938 40.2809L112.531 51.625V79.4088H100.398V58.6619L86.6881 50.8364C83.8748 54.0965 80.392 56.712 76.4768 58.5048C72.5617 60.2977 68.3061 61.2257 64 61.2257C59.6938 61.2257 55.4383 60.2977 51.5231 58.5048C47.6079 56.712 44.1251 54.0965 41.3118 50.8364L27.6019 58.6619V79.4088H15.4692V51.625L35.3061 40.2809C34.8986 39.1895 34.5543 38.0755 34.2749 36.9444H23.3554L6.67298 48.0458L0 37.9757L19.7156 24.8117H34.2749C34.6555 22.9857 35.2038 21.1987 35.9128 19.4733L26.4493 13.407L4.79241 18.7454L1.88057 6.61269L28.7545 0.0610352L42.7677 9.34254C48.4376 3.78495 56.0605 0.672 64 0.672C71.9394 0.672 79.5623 3.78495 85.2322 9.34254L99.0028 0.0610352L126.119 6.61269L123.207 18.7454L101.551 13.3463L92.0871 19.4127C92.7997 21.1576 93.348 22.9651 93.7251 24.8117H108.284L128 37.915L121.327 47.9852L104.644 36.9444M57.9336 30.8781C57.9336 29.6783 57.5778 28.5054 56.9112 27.5078C56.2447 26.5102 55.2972 25.7326 54.1888 25.2735C53.0803 24.8144 51.8605 24.6942 50.6838 24.9283C49.507 25.1624 48.4261 25.7401 47.5777 26.5885C46.7293 27.4369 46.1516 28.5178 45.9175 29.6946C45.6834 30.8713 45.8035 32.0911 46.2627 33.1996C46.7218 34.308 47.4994 35.2555 48.497 35.9221C49.4946 36.5886 50.6675 36.9444 51.8673 36.9444C53.4762 36.9444 55.0192 36.3053 56.1568 35.1676C57.2945 34.03 57.9336 32.487 57.9336 30.8781ZM82.199 30.8781C82.199 29.6783 81.8432 28.5054 81.1766 27.5078C80.5101 26.5102 79.5626 25.7326 78.4541 25.2735C77.3457 24.8144 76.1259 24.6942 74.9492 24.9283C73.7724 25.1624 72.6915 25.7401 71.8431 26.5885C70.9947 27.4369 70.4169 28.5178 70.1829 29.6946C69.9488 30.8713 70.0689 32.0911 70.5281 33.1996C70.9872 34.308 71.7648 35.2555 72.7624 35.9221C73.76 36.5886 74.9328 36.9444 76.1327 36.9444C77.7415 36.9444 79.2845 36.3053 80.4222 35.1676C81.5599 34.03 82.199 32.487 82.199 30.8781Z" fill="white"/>
</svg>
